<svg xmlns="http://www.w3.org/2000/svg" xmlns:xlink="http://www.w3.org/1999/xlink" version="1.1" xml:space="preserve" width="30" height="37.5"><rect id="backgroundrect" width="100%" height="100%" x="0" y="0" fill="none" stroke="none"/><g class="currentLayer" style=""><title>Layer 1</title><g id="svg_1" class=""><g xmlns="http://www.w3.org/2000/svg" xmlns:xlink="http://www.w3.org/1999/xlink" id="svg_2"><path d="M27.093781519298716,26.863959074020386 c-0.6021890759468079,-0.1338197946548462 -1.2177601313591004,-0.3653280394077302 -1.8319929888248443,-0.6570551917552949 c-0.22080266118049635,-0.10304124188423162 -0.44160532236099265,-0.21009707760810858 -0.6610697855949403,-0.3305348927974703 c-0.21009707760810858,0.2555958077907563 -0.43491433262825036,0.49513324022293104 -0.6851573486328126,0.6958629322052003 c-1.3114339876174927,1.0478089921474458 -3.004254390001297,1.6486598701477053 -4.6448850724697115,1.6486598701477053 c-1.8989028861522674,0 -3.424448545217514,-0.7841839966773989 -4.08016553902626,-2.0956179842948917 c-0.05620431375503543,-0.11240862751007086 -0.10170304393768319,-0.2221408591270448 -0.14051078438758854,-0.3265202989578249 c-0.038807740449905426,0.10437943983078005 -0.08430647063255316,0.21411167144775398 -0.14051078438758854,0.3265202989578249 c-0.6557169938087466,1.3114339876174927 -2.1812626528739933,2.0956179842948917 -4.08016553902626,2.0956179842948917 c-1.6419688804149628,0 -3.3321128869056706,-0.6008508780002596 -4.6448850724697115,-1.6486598701477053 c-0.2502430160045624,-0.19939149403572096 -0.47372207307815567,-0.4389289264678958 -0.6851573486328126,-0.6958629322052003 c-0.21946446323394786,0.1204378151893616 -0.4402671244144442,0.22749365091323856 -0.6610697855949403,0.3305348927974703 C4.223978612785498,26.49863103461266 3.608407557373214,26.73013927936555 3.0062184814264015,26.863959074020386 c-4.325055763244629,0.9621643235683445 -2.6763958930969243,4.014593839645386 -1.338197946548462,5.352791786193848 s1.338197946548462,1.338197946548462 13.381979465484621,1.338197946548462 s12.043781518936157,0 13.381979465484621,-1.338197946548462 S31.418837282543343,27.826123397588724 27.093781519298716,26.863959074020386 z" fill="#b80404" fill-opacity="1" id="svg_3"/><path d="M18.52663826549546,11.399743603706344 c-0.8885634365081793,1.231142110824585 -2.064839431524277,2.0822360048294066 -3.476638265132904,2.0822360048294066 c-1.4117988336086273,0 -2.588074828624726,-0.8510938940048222 -3.476638265132904,-2.0822360048294066 c-1.4251808130741122,1.2579060697555544 -4.718485959529876,1.0785875449180604 -5.89074736070633,3.4204339513778685 c-1.2659352574348453,2.5332087128162386 -1.0866167325973513,8.132228921175003 0.9728699071407321,10.354975710391999 c0.11776141929626471,0.12579060697555547 0.23819923448562633,0.24756662011146557 0.3653280394077302,0.35060786199569716 c2.402065314054489,1.9216522512435914 5.843910432577133,1.6941586003303528 6.6909897327423105,0 c0.8390501124858861,-1.676762027025223 -1.9979295341968537,-1.2525532779693604 -3.5770031111240392,-2.6763958930969243 c-0.07761548089981082,-0.06958629322052007 -0.13917258644104008,-0.15523096179962168 -0.21009707760810858,-0.23418464064598088 c-0.7922131843566895,-0.8818724467754367 -1.1454974422454838,-2.3619193756580352 -0.22749365091323856,-5.118607145547867 c-0.2823597667217255,1.1454974422454838 0.7159359014034272,3.3709206273555763 0.9982956681251529,3.928949171066284 c0.052189719915390044,0.10304124188423162 0.1338197946548462,0.18467131662368774 0.20608248376846325,0.2703159852027894 c0.38004821681976336,0.4429435203075412 1.0183686373233798,0.6958629322052003 1.8614333436489106,0.9661789174079899 c0.18199492073059087,0.0575425117015839 0.36800443530082716,0.12177601313591012 0.552675751924515,0.1886859104633332 c0.7145977034568788,0.2569340057373048 1.413137031555176,0.6142328574657442 1.7343045387268068,1.3796820828914642 c0.32116750717163095,-0.7654492254257207 1.0197068352699283,-1.1227480771541598 1.7343045387268068,-1.3796820828914642 c0.18467131662368774,-0.0669098973274231 0.3706808311939241,-0.13114339876174938 0.552675751924515,-0.1886859104633332 c0.8430647063255314,-0.2703159852027894 1.480046928882599,-0.5232353971004488 1.8614333436489106,-0.9661789174079899 c0.07360088706016542,-0.08564466857910163 0.15389276385307318,-0.1672747433185577 0.20608248376846325,-0.2703159852027894 c0.2823597667217255,-0.5580285437107088 1.2806554348468784,-2.7821135308742524 0.9982956681251529,-3.928949171066284 c0.9193419892787938,2.75802596783638 0.5647195334434512,4.23673469877243 -0.22749365091323856,5.118607145547867 c-0.07092449116706849,0.07895367884635929 -0.1338197946548462,0.16459834742546092 -0.21009707760810858,0.23418464064598088 c-1.579073576927185,1.4238426151275636 -4.416053223609924,0.9996338660717013 -3.5770031111240392,2.6763958930969243 c0.8470793001651769,1.6941586003303528 4.28892441868782,1.9216522512435914 6.6909897327423105,0 c0.12846700286865242,-0.10304124188423162 0.24756662011146557,-0.22481725502014174 0.36398984146118174,-0.35060786199569716 c2.059486639738083,-2.222746789216995 2.240143362522126,-7.8231051955223085 0.9742081050872804,-10.354975710391999 C23.245124225025332,12.47833114862442 19.95181907856957,12.65898787140845 18.52663826549546,11.399743603706344 z" fill="#b80404" fill-opacity="1" id="svg_4"/><path d="M15.050000000362559,12.143781661987305 c0.9916046783924106,0 1.897564688205719,-0.7507290480136874 2.597442214250565,-1.8400221765041351 c0.038807740449905426,-0.06021890759468083 0.07627728295326239,-0.12445240902900702 0.11374682545661938,-0.1886859104633332 C18.56009321415918,8.784904816150679 19.064593840007944,7.013130734920498 19.064593840007944,5.452791929244995 c0,-2.9560792639255524 -1.7985380401611328,-5.352791786193848 -4.014593839645386,-5.352791786193848 c-2.216055799484253,0 -4.014593839645386,2.3967125222682952 -4.014593839645386,5.352791786193848 c0,1.5603388056755065 0.5045006258487703,3.3321128869056706 1.3034047999382021,4.662281645774842 c0.037469542503356955,0.06423350143432621 0.0749390850067139,0.12846700286865242 0.11374682545661938,0.1886859104633332 C13.152435312156832,11.393052613973609 14.05839532197015,12.143781661987305 15.050000000362559,12.143781661987305 z" fill="#b80404" fill-opacity="1" id="svg_5"/></g></g><text x="0" y="45" fill="#ff0000" font-size="5px" font-weight="bold" font-family="'Helvetica Neue', Helvetica, Arial-Unicode, Arial, Sans-serif" id="svg_6">Created by Hea Poh Lin</text><text x="0" y="50" fill="#ff0000" font-size="5px" font-weight="bold" font-family="'Helvetica Neue', Helvetica, Arial-Unicode, Arial, Sans-serif" id="svg_7">from the Noun Project</text></g></svg>