<?xml version="1.0" encoding="UTF-8"?>
<svg version="1.1" viewBox="0 0 30 37.5" xml:space="preserve" xmlns="http://www.w3.org/2000/svg"><rect width="100%" height="100%" fill="none"/><g class="currentLayer" style=""><title>Layer 1</title><g class=""><g fill="#b80404" xmlns="http://www.w3.org/2000/svg" xmlns:xlink="http://www.w3.org/1999/xlink"><path d="m27.094 26.864c-0.60219-0.13382-1.2178-0.36533-1.832-0.65706-0.2208-0.10304-0.44161-0.2101-0.66107-0.33053-0.2101 0.2556-0.43491 0.49513-0.68516 0.69586-1.3114 1.0478-3.0043 1.6487-4.6449 1.6487-1.8989 0-3.4244-0.78418-4.0802-2.0956-0.056204-0.11241-0.1017-0.22214-0.14051-0.32652-0.038808 0.10438-0.084306 0.21411-0.14051 0.32652-0.65572 1.3114-2.1813 2.0956-4.0802 2.0956-1.642 0-3.3321-0.60085-4.6449-1.6487-0.25024-0.19939-0.47372-0.43893-0.68516-0.69586-0.21946 0.12044-0.44027 0.22749-0.66107 0.33053-0.61423 0.29173-1.2298 0.52324-1.832 0.65706-4.3251 0.96216-2.6764 4.0146-1.3382 5.3528s1.3382 1.3382 13.382 1.3382 12.044 0 13.382-1.3382 2.9869-4.3906-1.3382-5.3528z"/><path d="m18.527 11.4c-0.88856 1.2311-2.0648 2.0822-3.4766 2.0822-1.4118 0-2.5881-0.85109-3.4766-2.0822-1.4252 1.2579-4.7185 1.0786-5.8907 3.4204-1.2659 2.5332-1.0866 8.1322 0.97287 10.355 0.11776 0.12579 0.2382 0.24757 0.36533 0.35061 2.4021 1.9217 5.8439 1.6942 6.691 0 0.83905-1.6768-1.9979-1.2526-3.577-2.6764-0.077615-0.069586-0.13917-0.15523-0.2101-0.23418-0.79221-0.88187-1.1455-2.3619-0.22749-5.1186-0.28236 1.1455 0.71594 3.3709 0.9983 3.9289 0.05219 0.10304 0.13382 0.18467 0.20608 0.27032 0.38005 0.44294 1.0184 0.69586 1.8614 0.96618 0.18199 0.057543 0.368 0.12178 0.55268 0.18869 0.7146 0.25693 1.4131 0.61423 1.7343 1.3797 0.32117-0.76545 1.0197-1.1227 1.7343-1.3797 0.18467-0.06691 0.37068-0.13114 0.55268-0.18869 0.84306-0.27032 1.48-0.52324 1.8614-0.96618 0.073601-0.085645 0.15389-0.16727 0.20608-0.27032 0.28236-0.55803 1.2807-2.7821 0.9983-3.9289 0.91934 2.758 0.56472 4.2367-0.22749 5.1186-0.070924 0.078954-0.13382 0.1646-0.2101 0.23418-1.5791 1.4238-4.4161 0.99963-3.577 2.6764 0.84708 1.6942 4.2889 1.9217 6.691 0 0.12847-0.10304 0.24757-0.22482 0.36399-0.35061 2.0595-2.2227 2.2401-7.8231 0.97421-10.355-1.1723-2.3418-4.4656-2.1612-5.8907-3.4204z"/><path d="m15.05 12.144c0.9916 0 1.8976-0.75073 2.5974-1.84 0.038808-0.060219 0.076277-0.12445 0.11375-0.18869 0.7989-1.3302 1.3034-3.1019 1.3034-4.6623 0-2.9561-1.7985-5.3528-4.0146-5.3528-2.2161 0-4.0146 2.3967-4.0146 5.3528 0 1.5603 0.5045 3.3321 1.3034 4.6623 0.03747 0.064234 0.074939 0.12847 0.11375 0.18869 0.69988 1.0893 1.6058 1.84 2.5974 1.84z"/></g></g><text y="45" fill="#ff0000" font-family="'Helvetica Neue', Helvetica, Arial-Unicode, Arial, Sans-serif" font-size="5px" font-weight="bold">Created by Hea Poh Lin</text><text y="50" fill="#ff0000" font-family="'Helvetica Neue', Helvetica, Arial-Unicode, Arial, Sans-serif" font-size="5px" font-weight="bold">from the Noun Project</text></g></svg>